@startuml

namespace UnityEngine #EEEEEE {
    class MonoBehaviour
    class Material
    class MeshRenderer
}

namespace Spine #EEEEEE {
    class AnimationState
    class TrackEntry

    namespace Unity #DDDDDD {
        class AtlasAsset
        class SkeletonDataAsset
        class SkeletonGraphic
        class SkeletonAnimation

        AtlasAsset -[hidden]- SkeletonDataAsset
        SkeletonDataAsset -[hidden]- SkeletonAnimation
        SkeletonAnimation -[hidden]- SkeletonGraphic
    }

    Spine.Unity    -[hidden]---- AnimationState
    AnimationState *-- TrackEntry    
}

namespace Suneo #EEEEFF {
    abstract class Skeleton
    class SkeletonSprite
    class SkeletonImage

    namespace Resource #DDDDFF {
        class Cache
        class Loader
        class Path
        class Pack
    }

    namespace Animation #DDDDFF {
        class Controller
        class Keeper
        class State
    }

    namespace Color #DDDDFF {
        class Controller
    }
}

UnityEngine.MonoBehaviour <|--   Suneo.Skeleton
UnityEngine.Material      "1" -* Suneo.Skeleton
UnityEngine.MeshRenderer  "1" -* Suneo.Skeleton

Spine.Unity.AtlasAsset        "1" --* Suneo.Skeleton
Spine.Unity.SkeletonDataAsset "1" --* Suneo.Skeleton


Suneo.Skeleton <|-- Suneo.SkeletonSprite
Spine.Unity.SkeletonAnimation "1" --* Suneo.SkeletonSprite

Suneo.Skeleton <|--- Suneo.SkeletonImage
Spine.Unity.SkeletonGraphic "1" --* Suneo.SkeletonImage



Suneo.Skeleton *--- "1" Suneo.Animation.Controller
Suneo.Animation.Controller *-- Suneo.Animation.Keeper
Suneo.Animation.Controller *-- Suneo.Animation.State
Suneo.Animation.State  *- "1" Spine.AnimationState
Suneo.Animation.Keeper o- "n" Spine.TrackEntry

Suneo.Skeleton *--- "1" Suneo.Color.Controller

Suneo.Skeleton <... Suneo.Resource.Pack
Suneo.Resource.Pack  *-- "1" Suneo.Resource.Path
Suneo.Resource.Pack  "n" --o Suneo.Resource.Cache
Suneo.Resource.Cache "1" --* Suneo.Resource.Loader

@enduml